<?xml version="1.0" encoding="UTF-8" standalone="no"?>
<!-- Created with Inkscape (http://www.inkscape.org/) -->

<svg
   width="1023.9999"
   height="1023.9999"
   viewBox="0 0 270.93333 270.93333"
   version="1.1"
   id="svg6804"
   inkscape:export-filename="bitmap.svg"
   inkscape:export-xdpi="96"
   inkscape:export-ydpi="96"
   xmlns:inkscape="http://www.inkscape.org/namespaces/inkscape"
   xmlns:sodipodi="http://sodipodi.sourceforge.net/DTD/sodipodi-0.dtd"
   xmlns="http://www.w3.org/2000/svg"
   xmlns:svg="http://www.w3.org/2000/svg"
   xmlns:serif="http://www.serif.com/">
  <sodipodi:namedview
     id="namedview6806"
     pagecolor="#ffffff"
     bordercolor="#000000"
     borderopacity="0.25"
     inkscape:showpageshadow="2"
     inkscape:pageopacity="0.0"
     inkscape:pagecheckerboard="0"
     inkscape:deskcolor="#d1d1d1"
     inkscape:document-units="mm"
     showgrid="false" />
  <defs
     id="defs6801" />
  <g
     inkscape:label="Layer 1"
     inkscape:groupmode="layer"
     id="layer1">
    <g
       id="Rosette-Tile-1"
       serif:id="Rosette Tile 1"
       transform="matrix(0.31503632,0,0,0.31503156,-177.04832,-609.89164)"
       style="clip-rule:evenodd;fill-rule:evenodd;stroke-linejoin:round;stroke-miterlimit:2">
        <g
   transform="matrix(0.998206,0,0,0.998206,-4009.95,-1062.97)"
   id="g3342">
            <rect
   x="4580.1602"
   y="3004.3501"
   width="861.54498"
   height="861.54498"
   style="fill:#c8ba9f"
   id="rect3340" />

        </g>

        <g
   transform="translate(-3013.35,-1071.79)"
   id="g3346">
            <path
   d="m 4003.26,3365.45 c 0.3,3.69 -2.45,6.94 -6.15,7.25 -3.69,0.3 -6.94,-2.45 -7.24,-6.15 0,0 -11.5,-142.84 13.23,-203.76 10.87,-26.77 36.37,-55.81 63.23,-80.89 39.57,-36.94 81.82,-65.38 81.82,-65.38 1.76,-1.18 3.98,-1.46 5.98,-0.76 2,0.7 3.56,2.31 4.19,4.34 0,0 46.95,151.52 0.58,248.47 -25.75,53.83 -110.26,120.43 -110.26,120.43 -2.92,2.29 -7.14,1.78 -9.43,-1.13 -2.29,-2.92 -1.78,-7.15 1.13,-9.44 0,0 81.65,-63.84 106.43,-115.66 17.71,-37.02 20.96,-82.41 18.67,-123.52 -2.64,-47.11 -12.66,-88.7 -17.41,-106.26 -13.73,9.74 -43.85,31.95 -72.52,58.73 -25.36,23.67 -49.7,50.86 -59.96,76.13 -23.98,59.07 -12.29,197.6 -12.29,197.6 z"
   style="fill:#252525"
   id="path3344" />

        </g>

        <g
   transform="translate(-3013.35,-1071.79)"
   id="g3350">
            <path
   d="m 3950.31,3378.44 c 2.91,2.3 3.41,6.52 1.12,9.44 -2.3,2.91 -6.52,3.41 -9.44,1.12 0,0 -86.75,-68.54 -117.9,-133.67 -17.24,-36.05 -19.23,-78.22 -15.22,-115.88 5.92,-55.75 24.83,-101.41 24.83,-101.41 0.76,-1.82 2.27,-3.21 4.15,-3.82 1.87,-0.61 3.91,-0.36 5.59,0.67 0,0 107.19,66.36 142.78,138.79 32.12,65.39 17.01,193.13 17.01,193.13 -0.44,3.68 -3.79,6.31 -7.47,5.86 -3.68,-0.44 -6.31,-3.79 -5.87,-7.47 0,0 15.13,-122.78 -15.73,-185.59 -28.93,-58.89 -107.25,-113.36 -130.91,-128.88 -5.36,14.79 -16.72,49.72 -21.02,90.14 -3.76,35.3 -2.18,74.87 13.98,108.66 30.09,62.91 114.1,128.91 114.1,128.91 z"
   style="fill:#252525"
   id="path3348" />

        </g>

        <g
   transform="rotate(2.9805878,23209.075,-55169.121)"
   id="g3354">
            <path
   d="m 3930.45,3311.56 21.86,-9.91 33.17,73.19 -21.86,9.91 z"
   style="fill:#252525"
   id="path3352" />

        </g>

        <g
   transform="rotate(2.9805878,22910.609,-55161.355)"
   id="g3358">
            <path
   d="m 3946.34,3317.54 c 0,0 -62.66,-23.81 -89.83,-88.8 -39.42,-94.31 0.76,-131.67 0.76,-131.67 0,0 63,34.62 91.65,97.05 22.1,48.16 -2.58,123.42 -2.58,123.42 z"
   style="fill:#2a3060"
   id="path3356" />

        </g>

        <g
   transform="rotate(2.9805878,22910.609,-55161.355)"
   id="g3362">
            <path
   d="m 3943.5,3325.02 c 0,0 -65.85,-24.96 -94.37,-93.19 -42.11,-100.73 2.69,-140.62 2.69,-140.62 l 4.23,-3.94 5.07,2.79 c 0,0 65.34,35.95 95.07,100.72 9.38,20.45 11,45.47 9.35,68.17 -2.41,33.11 -11.6,61.08 -11.6,61.08 l -2.61,7.96 z m -2.28,-18.58 c 2.72,-10.21 6.89,-28.4 8.36,-48.65 1.46,-20.07 0.37,-42.25 -7.93,-60.33 -22.43,-48.88 -66.76,-80.03 -82.51,-89.95 -8,12 -24.43,48.33 4.75,118.15 20.01,47.85 60.25,72.23 77.33,80.78 z"
   style="fill:#252525"
   id="path3360" />

        </g>

        <g
   transform="rotate(43.861151,3814.3793,-843.27861)"
   id="g3366">
            <path
   d="m 3930.45,3311.56 21.86,-9.91 33.17,73.19 -21.86,9.91 z"
   style="fill:#252525"
   id="path3364" />

        </g>

        <g
   transform="rotate(43.861151,3814.3793,-843.27861)"
   id="g3370">
            <path
   d="m 3946.34,3317.54 c 0,0 -62.66,-23.81 -89.83,-88.8 -39.42,-94.31 0.76,-131.67 0.76,-131.67 0,0 63,34.62 91.65,97.05 22.1,48.16 -2.58,123.42 -2.58,123.42 z"
   style="fill:#6c3a2f"
   id="path3368" />

        </g>

        <g
   transform="rotate(43.861151,3814.3793,-843.27861)"
   id="g3374">
            <path
   d="m 3943.5,3325.02 c 0,0 -65.85,-24.96 -94.37,-93.19 -42.11,-100.73 2.69,-140.62 2.69,-140.62 l 4.23,-3.94 5.07,2.79 c 0,0 65.34,35.95 95.07,100.72 9.38,20.45 11,45.47 9.35,68.17 -2.41,33.11 -11.6,61.08 -11.6,61.08 l -2.61,7.96 z m -2.28,-18.58 c 2.72,-10.21 6.89,-28.4 8.36,-48.65 1.46,-20.07 0.37,-42.25 -7.93,-60.33 -22.43,-48.88 -66.76,-80.03 -82.51,-89.95 -8,12 -24.43,48.33 4.75,118.15 20.01,47.85 60.25,72.23 77.33,80.78 z"
   style="fill:#252525"
   id="path3372" />

        </g>

        <g
   transform="rotate(2.9805878,22910.609,-55161.355)"
   id="g3378">
            <path
   d="m 3946.34,3317.54 c 0,0 -62.66,-23.81 -89.83,-88.8 -39.42,-94.31 0.76,-131.67 0.76,-131.67 0,0 63,34.62 91.65,97.05 22.1,48.16 -2.58,123.42 -2.58,123.42 z"
   style="fill:#2a3060"
   id="path3376" />

        </g>

        <g
   transform="rotate(2.9805878,22910.609,-55161.355)"
   id="g3382">
            <path
   d="m 3943.5,3325.02 c 0,0 -65.85,-24.96 -94.37,-93.19 -42.11,-100.73 2.69,-140.62 2.69,-140.62 l 4.23,-3.94 5.07,2.79 c 0,0 65.34,35.95 95.07,100.72 9.38,20.45 11,45.47 9.35,68.17 -2.41,33.11 -11.6,61.08 -11.6,61.08 l -2.61,7.96 z m -2.28,-18.58 c 2.72,-10.21 6.89,-28.4 8.36,-48.65 1.46,-20.07 0.37,-42.25 -7.93,-60.33 -22.43,-48.88 -66.76,-80.03 -82.51,-89.95 -8,12 -24.43,48.33 4.75,118.15 20.01,47.85 60.25,72.23 77.33,80.78 z"
   style="fill:#252525"
   id="path3380" />

        </g>

        <g
   transform="rotate(43.861151,3814.3793,-843.27861)"
   id="g3386">
            <path
   d="m 3930.45,3311.56 21.86,-9.91 33.17,73.19 -21.86,9.91 z"
   style="fill:#252525"
   id="path3384" />

        </g>

        <g
   transform="rotate(43.861151,3814.3793,-843.27861)"
   id="g3390">
            <path
   d="m 3946.34,3317.54 c 0,0 -62.66,-23.81 -89.83,-88.8 -39.42,-94.31 0.76,-131.67 0.76,-131.67 0,0 63,34.62 91.65,97.05 22.1,48.16 -2.58,123.42 -2.58,123.42 z"
   style="fill:#6c3a2f"
   id="path3388" />

        </g>

        <g
   transform="rotate(43.861151,3814.3793,-843.27861)"
   id="g3394">
            <path
   d="m 3943.5,3325.02 c 0,0 -65.85,-24.96 -94.37,-93.19 -42.11,-100.73 2.69,-140.62 2.69,-140.62 l 4.23,-3.94 5.07,2.79 c 0,0 65.34,35.95 95.07,100.72 9.38,20.45 11,45.47 9.35,68.17 -2.41,33.11 -11.6,61.08 -11.6,61.08 l -2.61,7.96 z m -2.28,-18.58 c 2.72,-10.21 6.89,-28.4 8.36,-48.65 1.46,-20.07 0.37,-42.25 -7.93,-60.33 -22.43,-48.88 -66.76,-80.03 -82.51,-89.95 -8,12 -24.43,48.33 4.75,118.15 20.01,47.85 60.25,72.23 77.33,80.78 z"
   style="fill:#252525"
   id="path3392" />

        </g>

        <g
   transform="rotate(180,2492.655,2898.8)"
   id="g3398">
            <path
   d="m 4003.26,3365.45 c 0.3,3.69 -2.45,6.94 -6.15,7.25 -3.69,0.3 -6.94,-2.45 -7.24,-6.15 0,0 -11.5,-142.84 13.23,-203.76 10.87,-26.77 36.37,-55.81 63.23,-80.89 39.57,-36.94 81.82,-65.38 81.82,-65.38 1.65,-1.1 3.7,-1.43 5.6,-0.88 1.91,0.54 3.48,1.91 4.29,3.72 0,0 23,51.37 31.4,113.35 5.69,41.9 4.62,88.55 -14.12,127.73 -25.72,53.79 -126.84,128.69 -126.84,128.69 -2.99,2.2 -7.19,1.56 -9.39,-1.43 -2.2,-2.98 -1.57,-7.19 1.42,-9.39 0,0 97.89,-71.81 122.69,-123.67 17.62,-36.84 18.27,-80.73 12.93,-120.13 -6.25,-46.05 -20.81,-86.07 -27.23,-102.14 -13.29,9.39 -44.09,31.99 -73.39,59.35 -25.36,23.67 -49.7,50.86 -59.96,76.13 -23.98,59.07 -12.29,197.6 -12.29,197.6 z"
   style="fill:#252525"
   id="path3396" />

        </g>

        <g
   transform="rotate(180,2492.655,2898.8)"
   id="g3402">
            <path
   d="m 3949.81,3378.08 c 3.11,2.02 4,6.19 1.98,9.3 -2.02,3.11 -6.19,3.99 -9.3,1.97 0,0 -83.29,-54.17 -123.96,-113.7 -71.25,-104.3 2.56,-234.24 2.56,-234.24 1.66,-2.91 5.21,-4.15 8.32,-2.91 0,0 121.02,48.54 156.99,135.58 27.74,67.11 16.85,192.51 16.85,192.51 -0.32,3.7 -3.59,6.43 -7.28,6.1 -3.69,-0.32 -6.43,-3.59 -6.1,-7.28 0,0 10.93,-121.3 -15.89,-186.2 -29.67,-71.79 -120.62,-115.61 -144.01,-125.88 -12.35,24.36 -59.04,128.81 -0.34,214.74 39.39,57.67 120.18,110.01 120.18,110.01 z"
   style="fill:#252525"
   id="path3400" />

        </g>

        <g
   transform="rotate(-177.01941,2482.5471,2933.3161)"
   id="g3406">
            <path
   d="m 3930.45,3311.56 21.86,-9.91 33.17,73.19 -21.86,9.91 z"
   style="fill:#252525"
   id="path3404" />

        </g>

        <g
   transform="rotate(-177.01941,2482.5471,2933.3161)"
   id="g3410">
            <path
   d="m 3946.34,3317.54 c 0,0 -62.66,-23.81 -89.83,-88.8 -39.42,-94.31 0.76,-131.67 0.76,-131.67 0,0 63,34.62 91.65,97.05 22.1,48.16 -2.58,123.42 -2.58,123.42 z"
   style="fill:#2a3060"
   id="path3408" />

        </g>

        <g
   transform="rotate(-177.01941,2482.5471,2933.3161)"
   id="g3414">
            <path
   d="m 3943.5,3325.02 c 0,0 -65.85,-24.96 -94.37,-93.19 -42.11,-100.73 2.69,-140.62 2.69,-140.62 l 4.23,-3.94 5.07,2.79 c 0,0 65.34,35.95 95.07,100.72 9.38,20.45 11,45.47 9.35,68.17 -2.41,33.11 -11.6,61.08 -11.6,61.08 l -2.61,7.96 z m -2.28,-18.58 c 2.72,-10.21 6.89,-28.4 8.36,-48.65 1.46,-20.07 0.37,-42.25 -7.93,-60.33 -22.43,-48.88 -66.76,-80.03 -82.51,-89.95 -8,12 -24.43,48.33 4.75,118.15 20.01,47.85 60.25,72.23 77.33,80.78 z"
   style="fill:#252525"
   id="path3412" />

        </g>

        <g
   transform="rotate(-136.13885,2273.4148,3505.786)"
   id="g3418">
            <path
   d="m 3930.45,3311.56 21.86,-9.91 33.17,73.19 -21.86,9.91 z"
   style="fill:#252525"
   id="path3416" />

        </g>

        <g
   transform="rotate(-136.13885,2272.8004,3503.192)"
   id="g3422">
            <path
   d="m 3946.34,3317.54 c 0,0 -62.66,-23.81 -89.83,-88.8 -39.42,-94.31 0.76,-131.67 0.76,-131.67 0,0 63,34.62 91.65,97.05 22.1,48.16 -2.58,123.42 -2.58,123.42 z"
   style="fill:#6c3a2f"
   id="path3420" />

        </g>

        <g
   transform="rotate(-136.13885,2272.8004,3503.192)"
   id="g3426">
            <path
   d="m 3943.5,3325.02 c 0,0 -65.85,-24.96 -94.37,-93.19 -42.11,-100.73 2.69,-140.62 2.69,-140.62 l 4.23,-3.94 5.07,2.79 c 0,0 65.34,35.95 95.07,100.72 9.38,20.45 11,45.47 9.35,68.17 -2.41,33.11 -11.6,61.08 -11.6,61.08 l -2.61,7.96 z m -2.28,-18.58 c 2.72,-10.21 6.89,-28.4 8.36,-48.65 1.46,-20.07 0.37,-42.25 -7.93,-60.33 -22.43,-48.88 -66.76,-80.03 -82.51,-89.95 -8,12 -24.43,48.33 4.75,118.15 20.01,47.85 60.25,72.23 77.33,80.78 z"
   style="fill:#252525"
   id="path3424" />

        </g>

        <g
   transform="rotate(-90,1959.84,4399.45)"
   id="g3430">
            <path
   d="m 4003.26,3365.45 c 0.3,3.69 -2.45,6.94 -6.15,7.25 -3.69,0.3 -6.94,-2.45 -7.24,-6.15 0,0 -11.5,-142.84 13.23,-203.76 10.87,-26.77 36.37,-55.81 63.23,-80.89 39.57,-36.94 81.82,-65.38 81.82,-65.38 1.76,-1.18 3.98,-1.46 5.98,-0.76 2,0.7 3.56,2.31 4.19,4.34 0,0 46.95,151.52 0.58,248.47 -25.75,53.83 -110.26,120.43 -110.26,120.43 -2.92,2.29 -7.14,1.78 -9.43,-1.13 -2.29,-2.92 -1.78,-7.15 1.13,-9.44 0,0 81.65,-63.84 106.43,-115.66 17.71,-37.02 20.96,-82.41 18.67,-123.52 -2.64,-47.11 -12.66,-88.7 -17.41,-106.26 -13.73,9.74 -43.85,31.95 -72.52,58.73 -25.36,23.67 -49.7,50.86 -59.96,76.13 -23.98,59.07 -12.29,197.6 -12.29,197.6 z"
   style="fill:#252525"
   id="path3428" />

        </g>

        <g
   transform="rotate(-90,1959.84,4399.45)"
   id="g3434">
            <path
   d="m 3950.31,3378.44 c 2.91,2.3 3.41,6.52 1.12,9.44 -2.3,2.91 -6.52,3.41 -9.44,1.12 0,0 -86.75,-68.54 -117.9,-133.67 -17.24,-36.05 -19.23,-78.22 -15.22,-115.88 5.92,-55.75 24.83,-101.41 24.83,-101.41 0.76,-1.82 2.27,-3.21 4.15,-3.82 1.87,-0.61 3.91,-0.36 5.59,0.67 0,0 107.19,66.36 142.78,138.79 32.12,65.39 17.01,193.13 17.01,193.13 -0.44,3.68 -3.79,6.31 -7.47,5.86 -3.68,-0.44 -6.31,-3.79 -5.87,-7.47 0,0 15.13,-122.78 -15.73,-185.59 -28.93,-58.89 -107.25,-113.36 -130.91,-128.88 -5.36,14.79 -16.72,49.72 -21.02,90.14 -3.76,35.3 -2.18,74.87 13.98,108.66 30.09,62.91 114.1,128.91 114.1,128.91 z"
   style="fill:#252525"
   id="path3432" />

        </g>

        <g
   transform="rotate(-87.019412,1939.876,4478.8269)"
   id="g3438">
            <path
   d="m 3930.45,3311.56 21.86,-9.91 33.17,73.19 -21.86,9.91 z"
   style="fill:#252525"
   id="path3436" />

        </g>

        <g
   transform="rotate(-87.019412,1939.876,4478.8269)"
   id="g3442">
            <path
   d="m 3946.34,3317.54 c 0,0 -62.66,-23.81 -89.83,-88.8 -39.42,-94.31 0.76,-131.67 0.76,-131.67 0,0 63,34.62 91.65,97.05 22.1,48.16 -2.58,123.42 -2.58,123.42 z"
   style="fill:#2a3060"
   id="path3440" />

        </g>

        <g
   transform="rotate(-87.019412,1939.876,4478.8269)"
   id="g3446">
            <path
   d="m 3943.5,3325.02 c 0,0 -65.85,-24.96 -94.37,-93.19 -42.11,-100.73 2.69,-140.62 2.69,-140.62 l 4.23,-3.94 5.07,2.79 c 0,0 65.34,35.95 95.07,100.72 9.38,20.45 11,45.47 9.35,68.17 -2.41,33.11 -11.6,61.08 -11.6,61.08 l -2.61,7.96 z m -2.28,-18.58 c 2.72,-10.21 6.89,-28.4 8.36,-48.65 1.46,-20.07 0.37,-42.25 -7.93,-60.33 -22.43,-48.88 -66.76,-80.03 -82.51,-89.95 -8,12 -24.43,48.33 4.75,118.15 20.01,47.85 60.25,72.23 77.33,80.78 z"
   style="fill:#252525"
   id="path3444" />

        </g>

        <g
   transform="rotate(-46.138849,1241.6805,6417.8629)"
   id="g3450">
            <path
   d="m 3930.45,3311.56 21.86,-9.91 33.17,73.19 -21.86,9.91 z"
   style="fill:#252525"
   id="path3448" />

        </g>

        <g
   transform="rotate(-46.138849,1241.6805,6417.8629)"
   id="g3454">
            <path
   d="m 3946.34,3317.54 c 0,0 -62.66,-23.81 -89.83,-88.8 -39.42,-94.31 0.76,-131.67 0.76,-131.67 0,0 63,34.62 91.65,97.05 22.1,48.16 -2.58,123.42 -2.58,123.42 z"
   style="fill:#6c3a2f"
   id="path3452" />

        </g>

        <g
   transform="rotate(-46.138849,1241.6805,6417.8629)"
   id="g3458">
            <path
   d="m 3943.5,3325.02 c 0,0 -65.85,-24.96 -94.37,-93.19 -42.11,-100.73 2.69,-140.62 2.69,-140.62 l 4.23,-3.94 5.07,2.79 c 0,0 65.34,35.95 95.07,100.72 9.38,20.45 11,45.47 9.35,68.17 -2.41,33.11 -11.6,61.08 -11.6,61.08 l -2.61,7.96 z m -2.28,-18.58 c 2.72,-10.21 6.89,-28.4 8.36,-48.65 1.46,-20.07 0.37,-42.25 -7.93,-60.33 -22.43,-48.88 -66.76,-80.03 -82.51,-89.95 -8,12 -24.43,48.33 4.75,118.15 20.01,47.85 60.25,72.23 77.33,80.78 z"
   style="fill:#252525"
   id="path3456" />

        </g>

        <g
   transform="rotate(90,3032,1391.41)"
   id="g3462">
            <path
   d="m 4003.26,3365.45 c 0.3,3.69 -2.45,6.94 -6.15,7.25 -3.69,0.3 -6.94,-2.45 -7.24,-6.15 0,0 -11.5,-142.84 13.23,-203.76 26.9,-66.26 121.45,-140.99 121.45,-140.99 1.6,-1.26 3.68,-1.73 5.66,-1.27 1.98,0.46 3.65,1.79 4.54,3.61 0,0 25.47,52.52 35.86,115.4 7.03,42.57 7.05,89.8 -11.71,129.03 -25.75,53.83 -110.26,120.43 -110.26,120.43 -2.92,2.29 -7.14,1.78 -9.43,-1.13 -2.29,-2.92 -1.78,-7.15 1.13,-9.44 0,0 81.65,-63.84 106.43,-115.66 17.6,-36.79 17.17,-81.12 10.58,-121.04 -7.71,-46.68 -23.99,-87.46 -31.17,-103.95 -21.53,17.87 -88.97,76.71 -110.63,130.07 -23.98,59.07 -12.29,197.6 -12.29,197.6 z"
   style="fill:#252525"
   id="path3460" />

        </g>

        <g
   transform="rotate(90,3032,1391.41)"
   id="g3466">
            <path
   d="m 3950.31,3378.44 c 2.91,2.3 3.41,6.52 1.12,9.44 -2.3,2.91 -6.52,3.41 -9.44,1.12 0,0 -86.75,-68.54 -117.9,-133.67 -17.24,-36.05 -19.23,-78.22 -15.22,-115.88 5.92,-55.75 24.83,-101.41 24.83,-101.41 0.76,-1.82 2.27,-3.21 4.15,-3.82 1.87,-0.61 3.91,-0.36 5.59,0.67 0,0 107.19,66.36 142.78,138.79 32.12,65.39 17.01,193.13 17.01,193.13 -0.44,3.68 -3.79,6.31 -7.47,5.86 -3.68,-0.44 -6.31,-3.79 -5.87,-7.47 0,0 15.13,-122.78 -15.73,-185.59 -28.93,-58.89 -107.25,-113.36 -130.91,-128.88 -5.36,14.79 -16.72,49.72 -21.02,90.14 -3.76,35.3 -2.18,74.87 13.98,108.66 30.09,62.91 114.1,128.91 114.1,128.91 z"
   style="fill:#252525"
   id="path3464" />

        </g>

        <g
   transform="rotate(92.980588,3004.3519,1465.3617)"
   id="g3470">
            <path
   d="m 3930.45,3311.56 21.86,-9.91 33.17,73.19 -21.86,9.91 z"
   style="fill:#252525"
   id="path3468" />

        </g>

        <g
   transform="rotate(87.52345,3044.5871,1330.9442)"
   id="g3474">
            <path
   d="m 3946.34,3317.54 c 0,0 -62.66,-23.81 -89.83,-88.8 -39.42,-94.31 0.76,-131.67 0.76,-131.67 0,0 63,34.62 91.65,97.05 22.1,48.16 -2.58,123.42 -2.58,123.42 z"
   style="fill:#2a3060"
   id="path3472" />

        </g>

        <g
   transform="rotate(87.52345,3044.5871,1330.9442)"
   id="g3478">
            <path
   d="m 3943.5,3325.02 c 0,0 -65.85,-24.96 -94.37,-93.19 -42.11,-100.73 2.69,-140.62 2.69,-140.62 l 4.23,-3.94 5.07,2.79 c 0,0 65.34,35.95 95.07,100.72 9.38,20.45 11,45.47 9.35,68.17 -2.41,33.11 -11.6,61.08 -11.6,61.08 l -2.61,7.96 z m -2.28,-18.58 c 2.72,-10.21 6.89,-28.4 8.36,-48.65 1.46,-20.07 0.37,-42.25 -7.93,-60.33 -22.43,-48.88 -66.76,-80.03 -82.51,-89.95 -8,12 -24.43,48.33 4.75,118.15 20.01,47.85 60.25,72.23 77.33,80.78 z"
   style="fill:#252525"
   id="path3476" />

        </g>

        <g
   transform="rotate(133.86115,2718.2401,2256.3642)"
   id="g3482">
            <path
   d="m 3930.45,3311.56 21.86,-9.91 33.17,73.19 -21.86,9.91 z"
   style="fill:#252525"
   id="path3480" />

        </g>

        <g
   transform="rotate(128.0885,2746.7413,2172.0918)"
   id="g3486">
            <path
   d="m 3946.34,3317.54 c 0,0 -62.66,-23.81 -89.83,-88.8 -39.42,-94.31 0.76,-131.67 0.76,-131.67 0,0 63,34.62 91.65,97.05 22.1,48.16 -2.58,123.42 -2.58,123.42 z"
   style="fill:#6c3a2f"
   id="path3484" />

        </g>

        <g
   transform="rotate(128.0885,2746.7413,2172.0918)"
   id="g3490">
            <path
   d="m 3943.5,3325.02 c 0,0 -65.85,-24.96 -94.37,-93.19 -42.11,-100.73 2.69,-140.62 2.69,-140.62 l 4.23,-3.94 5.07,2.79 c 0,0 65.34,35.95 95.07,100.72 9.38,20.45 11,45.47 9.35,68.17 -2.41,33.11 -11.6,61.08 -11.6,61.08 l -2.61,7.96 z m -2.28,-18.58 c 2.72,-10.21 6.89,-28.4 8.36,-48.65 1.46,-20.07 0.37,-42.25 -7.93,-60.33 -22.43,-48.88 -66.76,-80.03 -82.51,-89.95 -8,12 -24.43,48.33 4.75,118.15 20.01,47.85 60.25,72.23 77.33,80.78 z"
   style="fill:#252525"
   id="path3488" />

        </g>

        <g
   transform="translate(-3017.53,-1072.94)"
   id="g3494">
            <circle
   cx="4000.74"
   cy="3438.9099"
   r="72.913002"
   style="fill:#6c3a2f"
   id="circle3492" />

        </g>

        <g
   transform="translate(-3017.53,-1072.94)"
   id="g3498">
            <path
   d="m 4000.74,3358 c 44.66,0 80.92,36.26 80.92,80.91 0,44.66 -36.26,80.92 -80.92,80.92 -44.66,0 -80.91,-36.26 -80.91,-80.92 0,-44.65 36.25,-80.91 80.91,-80.91 z m 0,16 c -35.83,0 -64.91,29.09 -64.91,64.91 0,35.83 29.08,64.92 64.91,64.92 35.83,0 64.92,-29.09 64.92,-64.92 0,-35.82 -29.09,-64.91 -64.92,-64.91 z"
   style="fill:#252525"
   id="path3496" />

        </g>

        <g
   transform="translate(-3017.53,-1072.94)"
   id="g3502">
            <circle
   cx="4000.74"
   cy="3438.9099"
   r="72.913002"
   style="fill:#6c3a2f"
   id="circle3500" />

        </g>

        <g
   transform="translate(-3017.53,-1072.94)"
   id="g3506">
            <path
   d="m 4000.74,3358 c 44.66,0 80.92,36.26 80.92,80.91 0,44.66 -36.26,80.92 -80.92,80.92 -44.66,0 -80.91,-36.26 -80.91,-80.92 0,-44.65 36.25,-80.91 80.91,-80.91 z m 0,16 c -35.83,0 -64.91,29.09 -64.91,64.91 0,35.83 29.08,64.92 64.91,64.92 35.83,0 64.92,-29.09 64.92,-64.92 0,-35.82 -29.09,-64.91 -64.92,-64.91 z"
   style="fill:#252525"
   id="path3504" />

        </g>

        <g
   transform="translate(-3015.5,-1069.75)"
   id="g3510">
            <path
   d="m 3863.87,3865.72 143.69,-112.29 141.72,112.29 h -38.64 l -103.19,-81.75 -104.61,81.75 z"
   style="fill:#252525"
   id="path3508" />

        </g>

        <g
   transform="translate(-3015.5,-1069.75)"
   id="g3514">
            <path
   d="m 4437.5,3256.46 -231.52,-58.98 -24.29,-191.76 h 24.19 l 21.86,172.53 209.76,53.45 z"
   style="fill:#252525"
   id="path3512" />

        </g>

        <g
   transform="translate(-3015.5,-1069.75)"
   id="g3518">
            <path
   d="m 3806.5,3005.72 -35.49,218.52 -193.51,39.39 v -24.49 l 172.48,-35.11 32.21,-198.31 z"
   style="fill:#252525"
   id="path3516" />

        </g>

        <g
   transform="translate(-3015.5,-1069.75)"
   id="g3522">
            <path
   d="m 4204.61,3865.72 46.94,-229.37 185.95,-54.19 v 25 l -165.34,48.19 -43.05,210.37 z"
   style="fill:#252525"
   id="path3520" />

        </g>

        <g
   transform="translate(-3015.5,-1069.75)"
   id="g3526">
            <path
   d="m 3577.5,3599.14 188.72,54.13 36.8,212.45 h -24.36 l -33.52,-193.53 -167.64,-48.08 z"
   style="fill:#252525"
   id="path3524" />

        </g>

        <g
   transform="translate(-3015.5,-1069.75)"
   id="g3530">
            <path
   d="m 3577.5,3354.23 v -36.69 l 112.6,130.22 -112.6,112.07 v -33.87 l 79.81,-79.43 z"
   style="fill:#252525"
   id="path3528" />

        </g>

        <g
   transform="matrix(-1,0,0,1,4999.5,-1104.24)"
   id="g3534">
            <path
   d="m 3577.5,3354.23 v -36.69 l 112.6,130.22 -112.6,112.07 v -33.87 l 79.81,-79.43 z"
   style="fill:#252525"
   id="path3532" />

        </g>

        <g
   transform="translate(-3015.5,-1069.75)"
   id="g3538">
            <path
   d="m 4091.6,3005.72 -104.99,123.06 -9.16,-8.21 c 0,0 -84.33,-75.56 -128.16,-114.85 h 35.92 c 34.69,31.08 79.97,71.64 99.1,88.77 l 75.74,-88.77 z"
   style="fill:#252525"
   id="path3536" />

        </g>

    </g>
  </g>
</svg>
